<?xml version="1.0" encoding="utf-8"?>
<!-- Generator: Adobe Illustrator 25.2.3, SVG Export Plug-In . SVG Version: 6.00 Build 0)  -->
<svg version="1.1" id="Layer_1" xmlns="http://www.w3.org/2000/svg" xmlns:xlink="http://www.w3.org/1999/xlink" x="0px" y="0px"
	 viewBox="0 0 120 27" style="enable-background:new 0 0 120 27;" xml:space="preserve">
<style type="text/css">
	.st0{fill:#231916;}
	.st1{fill:#FFFFFF;}
</style>
<g>
	<path class="st0" d="M23.6,11.1h-1.7V7.2h-2.9V1.3h-4l-2.3,4.8h0l-2.3-4.8h-4v12.2h2.2c-1.7,1.1-2.8,3.1-2.8,5.3
		c0,3.5,2.9,6.4,6.4,6.4c1.3,0,2.6-0.4,3.6-1.1L15,25.7h4l0.8-2h4.5l0.8,2h4.4L23.6,11.1z"/>
	<path class="st1" d="M26.7,23.8L26.7,23.8l-4.4-11.1c0-0.1-0.1-0.2-0.2-0.2s-0.2,0.1-0.2,0.2l-1.9,4.8v-8c0-0.1-0.1-0.2-0.2-0.3
		c-0.1,0-0.2,0-0.3,0.1l-3.9,8.1l-2.6-5.5l3.5-7.4v7.6c0,0.1,0.1,0.3,0.3,0.3s0.3-0.1,0.3-0.3V3.3c0-0.1-0.1-0.2-0.2-0.3
		c-0.1,0-0.2,0-0.3,0.2l-3.9,8.1L8.7,3.2C8.7,3.1,8.6,3,8.4,3c-0.1,0-0.2,0.1-0.2,0.3v8.8c0,0.1,0.1,0.3,0.3,0.3
		c0.1,0,0.3-0.1,0.3-0.3V4.5l2.4,5v4.9c-0.1,0-0.3,0.1-0.4,0.1c-2,0.6-3.2,2.4-3.2,4.3c0,0.4,0.1,0.9,0.2,1.3c0.6,2,2.4,3.2,4.3,3.2
		c0.4,0,0.9-0.1,1.3-0.2c1.5-0.5,2.6-1.6,3.1-3c0-0.1,0-0.3-0.2-0.3c-0.1,0-0.3,0-0.3,0.2c-0.4,1.2-1.3,2.3-2.7,2.7
		c-0.4,0.1-0.8,0.2-1.1,0.2c-1.7,0-3.3-1.1-3.8-2.9c-0.1-0.4-0.2-0.8-0.2-1.1c0-1.7,1.1-3.3,2.9-3.8c0.1,0,0.2-0.1,0.3-0.1v3.3
		c0,0.1,0.1,0.3,0.3,0.3c0.1,0,0.3-0.1,0.3-0.3v-3.4c0.1,0,0.2,0,0.3,0c0.1,0,0.2,0,0.2,0c0.1,0,0.3-0.1,0.3-0.3
		c0-0.1-0.1-0.3-0.2-0.3c-0.1,0-0.2,0-0.3,0c-0.1,0-0.2,0-0.3,0v-3.7l3.6,7.5c0,0.1,0.1,0.2,0.2,0.2s0.2-0.1,0.2-0.2l3.6-7.5v8.2
		l-2,5c0,0.1,0,0.3,0.1,0.4c0.1,0,0.3,0,0.4-0.1l1.2-3.1H25l1.2,3.1c0,0.1,0.1,0.2,0.2,0.2c0,0,0.1,0,0.1,0
		C26.7,24.1,26.7,23.9,26.7,23.8 M19.3,20.3l2.7-6.8l2.7,6.8H19.3z"/>
	<path class="st0" d="M41.2,13.3V12h-2.5c0.2-0.5,0.3-1,0.4-1.6c0.1-0.8,0.2-1.5,0.2-2.3V7.5h-7.5v1.3h6.1c0,0.2,0,0.5,0,0.7
		c0,0.3-0.1,0.6-0.1,0.9c0,0.3-0.1,0.6-0.2,0.9c-0.1,0.2-0.2,0.5-0.2,0.7h-7.4v1.3h4.9v2.1h-3.1v1.3h6.1v3.2h1.4v-4.5h-3v-2.1
		L41.2,13.3L41.2,13.3z"/>
	<path class="st0" d="M46.8,10.2V8.9h-3.9V7.7h5.4v3.8h-4v1.3H46c0.2,0,0.5,0,0.8,0c0.3,0,0.6,0,1-0.1c0.3,0,0.7-0.1,1-0.1
		c0.3-0.1,0.6-0.1,0.8-0.2l0.2,1.2c-0.3,0.1-0.6,0.1-1,0.2s-0.8,0.1-1.2,0.1c-0.4,0-0.8,0.1-1.3,0.1c-0.4,0-0.8,0-1.2,0h-1.8
		c-0.4,0-0.5-0.2-0.5-0.5v-3.2L46.8,10.2L46.8,10.2z M45.9,19.9c-0.4,0-0.5-0.2-0.5-0.5v-4.4h1.4v1.3h4.2v-1.3h1.4v4.9
		C52.4,19.9,45.9,19.9,45.9,19.9z M46.8,18.6h4.2v-1.1h-4.2V18.6z M52.4,14.2h-1.4v-7h1.4V14.2z"/>
	<path class="st0" d="M60.4,11.6c-0.1-0.3-0.3-0.6-0.5-0.8c-0.2-0.2-0.5-0.4-0.8-0.5s-0.7-0.2-1.1-0.2c-0.4,0-0.7,0.1-1.1,0.2
		c-0.3,0.1-0.6,0.3-0.8,0.5c-0.2,0.2-0.4,0.5-0.5,0.8s-0.2,0.6-0.2,1c0,0.3,0.1,0.7,0.2,0.9c0.1,0.3,0.3,0.6,0.5,0.8
		c0.2,0.2,0.5,0.4,0.8,0.5c0.3,0.1,0.7,0.2,1.1,0.2c0.4,0,0.8-0.1,1.1-0.2c0.3-0.1,0.6-0.3,0.8-0.5s0.4-0.5,0.5-0.8s0.2-0.6,0.2-0.9
		C60.5,12.3,60.5,11.9,60.4,11.6 M59.1,13.1c-0.1,0.1-0.2,0.3-0.3,0.4c-0.1,0.1-0.2,0.2-0.4,0.3c-0.2,0.1-0.3,0.1-0.5,0.1
		c-0.4,0-0.7-0.1-0.9-0.4c-0.2-0.2-0.4-0.5-0.4-0.9c0-0.4,0.1-0.6,0.4-0.9s0.5-0.4,0.9-0.4c0.4,0,0.7,0.1,0.9,0.4
		c0.2,0.2,0.4,0.5,0.4,0.9C59.2,12.8,59.1,12.9,59.1,13.1"/>
	<polygon class="st0" points="58.6,8.5 58.6,7 57.2,7 57.2,8.5 54.4,8.5 54.4,9.7 61.4,9.7 61.4,8.5 	"/>
	<path class="st0" d="M58.2,19.5c-0.4,0-0.5-0.2-0.5-0.5v-3H59v2.3h5.8v1.2L58.2,19.5L58.2,19.5z"/>
	<polygon class="st0" points="63.2,14 61.3,14 61.3,12.7 63.2,12.7 63.2,11.6 61.3,11.6 61.3,10.3 63.2,10.3 63.2,7.2 64.6,7.2 
		64.6,16.5 63.2,16.5 	"/>
	<path class="st0" d="M66.8,8h4.5v1.2h-3.1v4.6H69c0.5,0,1,0,1.6-0.1c0.5,0,1-0.1,1.5-0.2l0.2,1.2C71.7,14.9,71,15,70.3,15
		s-1.4,0.1-2.1,0.1h-0.9c-0.4,0-0.5-0.2-0.5-0.5C66.8,14.5,66.8,8,66.8,8z M75.6,12h-1.3v5.6h-1.4V7.3h1.4v3.4h1.3V7.2h1.4V18h-1.4
		V12z"/>
	<path class="st0" d="M79.3,7.9H85v7h-5.2c-0.4,0-0.6-0.2-0.6-0.5V7.9z M80.7,13.7h2.9V9.1h-2.9V13.7z M88.8,18h-1.4V7.2h1.4V18z"/>
	<path class="st0" d="M94,17.8v0.8h6.3v1.2h-7.1c-0.4,0-0.5-0.2-0.5-0.5v-2.7h5.9v-0.8h-5.9v-1.2h3v-1h-4.9v-1.2h11.3v1.2H97v1h2.9
		v3.2H94z M95.6,7H97v0.4c0,0.4,0.1,0.7,0.3,1c0.2,0.3,0.5,0.6,0.9,0.9s0.8,0.5,1.2,0.7c0.5,0.2,0.9,0.4,1.5,0.5l-0.6,1.1
		c-0.9-0.3-1.8-0.6-2.5-1.1c-0.7-0.4-1.2-0.9-1.6-1.4c-0.3,0.5-0.8,1-1.5,1.4c-0.7,0.4-1.5,0.8-2.5,1.1l-0.6-1.1
		c0.5-0.1,1-0.3,1.5-0.5s0.9-0.4,1.2-0.7c0.4-0.3,0.6-0.6,0.9-0.9s0.3-0.7,0.3-1V7z"/>
	<path class="st0" d="M106.6,13.3h0.4c0.6,0,1.2-0.1,1.7-0.1c0.6-0.1,1.1-0.1,1.7-0.3l0.2,1.2c-0.3,0.1-0.6,0.1-1,0.2
		c-0.4,0.1-0.8,0.1-1.2,0.1c-0.4,0-0.8,0.1-1.3,0.1s-0.8,0-1.2,0h-3.1v-1.3h2.4v-2.5h1.4L106.6,13.3L106.6,13.3z M109.6,8.3
		c0,0.9,0,1.6-0.1,2.3s-0.2,1.2-0.3,1.7l-1.4-0.1c0.1-0.5,0.2-1,0.2-1.6c0.1-0.5,0.1-1.1,0.1-1.6h-4.7V7.8h6.1L109.6,8.3L109.6,8.3z
		 M106.1,19.5c-0.4,0-0.5-0.2-0.5-0.5v-3.3h1.4v2.6h5.9v1.2H106.1z M114.4,10.7V12h-1.8v4.3h-1.4V7.2h1.4v3.6H114.4z"/>
</g>
</svg>
