<?xml version="1.0" encoding="utf-8"?>
<!-- Generator: Adobe Illustrator 25.2.3, SVG Export Plug-In . SVG Version: 6.00 Build 0)  -->
<svg version="1.1" id="Layer_1" xmlns="http://www.w3.org/2000/svg" xmlns:xlink="http://www.w3.org/1999/xlink" x="0px" y="0px"
	 viewBox="0 0 120 27" style="enable-background:new 0 0 120 27;" xml:space="preserve">
<style type="text/css">
	.st0{fill:#7B8583;}
</style>
<g>
	<g>
		<polygon class="st0" points="19.33,20.29 24.71,20.29 22.02,13.5 		"/>
		<path class="st0" d="M23.57,11.06h-1.71V7.15h-2.93V1.29h-4.03l-2.3,4.82h-0.03l-2.3-4.82H6.24V13.5h2.19
			c-1.71,1.15-2.84,3.11-2.84,5.34c0,3.55,2.88,6.43,6.43,6.43c1.32,0,2.55-0.4,3.58-1.09l-0.62,1.53h4.04l0.77-1.95h4.47l0.76,1.95
			h4.37L23.57,11.06z M26.53,24.14c-0.03,0.01-0.07,0.02-0.1,0.02c-0.11,0-0.21-0.06-0.25-0.17l-1.24-3.15h-5.81l-1.25,3.15
			c-0.06,0.14-0.21,0.21-0.35,0.15c-0.14-0.05-0.21-0.21-0.15-0.35l1.98-4.99v-8.16l-3.58,7.51c-0.05,0.09-0.14,0.16-0.24,0.16
			c-0.1,0-0.2-0.06-0.25-0.16l-3.58-7.51v3.69c0.11-0.01,0.22-0.01,0.32-0.01c0.09,0,0.18,0,0.27,0.01
			c0.15,0.01,0.26,0.14,0.25,0.29c-0.01,0.15-0.14,0.26-0.29,0.26c-0.08-0.01-0.16-0.01-0.23-0.01c-0.11,0-0.21,0.01-0.32,0.01v3.35
			c0,0.15-0.12,0.27-0.27,0.27c-0.15,0-0.27-0.12-0.27-0.27v-3.27c-0.09,0.02-0.18,0.04-0.27,0.07c-1.73,0.51-2.85,2.1-2.85,3.81
			c0,0.37,0.05,0.75,0.16,1.13c0.51,1.73,2.1,2.85,3.81,2.85c0.37,0,0.75-0.05,1.13-0.17c1.34-0.39,2.31-1.43,2.68-2.67
			c0.04-0.14,0.2-0.23,0.34-0.18c0.14,0.04,0.23,0.19,0.18,0.34c-0.43,1.41-1.53,2.59-3.05,3.04c-0.43,0.13-0.86,0.19-1.29,0.19
			c-1.95,0-3.75-1.27-4.33-3.23C7.56,19.7,7.5,19.27,7.5,18.84c0-1.95,1.27-3.75,3.23-4.33c0.14-0.04,0.28-0.08,0.42-0.1V9.5
			L8.77,4.49v7.59c0,0.15-0.12,0.27-0.27,0.27c-0.15,0-0.27-0.12-0.27-0.27V3.29c0-0.13,0.09-0.24,0.21-0.27
			C8.56,3,8.69,3.06,8.74,3.17l3.85,8.08l3.85-8.08c0.05-0.12,0.18-0.18,0.3-0.15c0.13,0.03,0.21,0.14,0.21,0.27v8.79
			c0,0.15-0.12,0.27-0.27,0.27s-0.27-0.12-0.27-0.27V4.49l-3.52,7.39l2.63,5.52l3.85-8.08c0.05-0.12,0.18-0.18,0.3-0.15
			c0.12,0.03,0.21,0.14,0.21,0.26v7.98l1.88-4.76c0.04-0.1,0.14-0.17,0.25-0.17c0.11,0,0.21,0.07,0.25,0.17l4.4,11.12
			C26.73,23.92,26.67,24.08,26.53,24.14z"/>
	</g>
	<path class="st0" d="M41.23,13.27v-1.26h-2.49c0.17-0.47,0.31-1.01,0.41-1.63c0.13-0.75,0.19-1.52,0.19-2.31V7.52h-7.5v1.26h6.07
		c0,0.22-0.01,0.46-0.04,0.74c-0.03,0.28-0.07,0.56-0.12,0.87c-0.05,0.31-0.12,0.61-0.21,0.92c-0.07,0.25-0.15,0.49-0.23,0.72h-7.36
		v1.26h4.94v2.09h-3.12v1.26h6.1v3.24h1.43v-4.49h-2.98v-2.09H41.23z"/>
	<path class="st0" d="M46.82,10.19V8.93h-3.94V7.68h5.37v3.75H44.3v1.26h1.66c0.23,0,0.51-0.01,0.82-0.03
		c0.32-0.02,0.64-0.04,0.98-0.08c0.34-0.03,0.67-0.07,0.99-0.12c0.33-0.05,0.61-0.11,0.85-0.17l0.2,1.19
		c-0.26,0.08-0.58,0.15-0.95,0.2c-0.37,0.05-0.76,0.1-1.17,0.13c-0.41,0.04-0.83,0.07-1.26,0.09c-0.43,0.02-0.82,0.03-1.19,0.03
		h-1.82c-0.36,0-0.54-0.18-0.54-0.54v-3.21H46.82z M45.86,19.85c-0.36,0-0.54-0.18-0.54-0.54V14.9h1.43v1.31h4.18V14.9h1.43v4.95
		H45.86z M46.75,18.59h4.18v-1.15h-4.18V18.59z M52.36,14.15h-1.43v-7h1.43V14.15z"/>
	<path class="st0" d="M60.36,11.64c-0.13-0.3-0.31-0.56-0.55-0.78c-0.23-0.22-0.51-0.39-0.84-0.52c-0.33-0.13-0.69-0.19-1.09-0.19
		c-0.39,0-0.74,0.06-1.07,0.19c-0.32,0.13-0.61,0.3-0.85,0.52c-0.24,0.22-0.42,0.48-0.55,0.78c-0.13,0.3-0.2,0.62-0.2,0.97
		c0,0.34,0.06,0.66,0.2,0.95c0.13,0.29,0.32,0.55,0.55,0.78c0.24,0.22,0.52,0.4,0.85,0.53c0.32,0.13,0.68,0.19,1.07,0.19
		c0.4,0,0.76-0.06,1.09-0.19c0.33-0.13,0.61-0.3,0.84-0.53c0.23-0.23,0.42-0.49,0.55-0.78c0.13-0.29,0.19-0.61,0.19-0.95
		C60.55,12.26,60.49,11.94,60.36,11.64 M59.08,13.09c-0.06,0.15-0.15,0.29-0.26,0.4c-0.11,0.11-0.25,0.2-0.41,0.27
		c-0.16,0.07-0.34,0.1-0.53,0.1c-0.38,0-0.69-0.12-0.92-0.37c-0.24-0.25-0.36-0.54-0.36-0.88c0-0.35,0.12-0.65,0.36-0.9
		c0.24-0.25,0.55-0.37,0.92-0.37c0.39,0,0.7,0.12,0.94,0.37c0.24,0.25,0.36,0.54,0.36,0.9C59.17,12.77,59.14,12.94,59.08,13.09"/>
	<polygon class="st0" points="58.59,8.51 58.59,6.98 57.16,6.98 57.16,8.51 54.4,8.51 54.4,9.72 61.39,9.72 61.39,8.51 	"/>
	<path class="st0" d="M58.15,19.54c-0.36,0-0.54-0.18-0.54-0.54v-3.04h1.43v2.32h5.83v1.25H58.15z"/>
	<polygon class="st0" points="63.18,13.98 61.29,13.98 61.29,12.74 63.18,12.74 63.18,11.56 61.29,11.56 61.29,10.32 63.18,10.32 
		63.18,7.15 64.61,7.15 64.61,16.49 63.18,16.49 	"/>
	<path class="st0" d="M66.79,7.98h4.52v1.25h-3.09v4.58h0.77c0.51-0.02,1.04-0.04,1.57-0.07c0.54-0.03,1.03-0.09,1.48-0.2l0.2,1.19
		c-0.59,0.13-1.23,0.22-1.93,0.26c-0.7,0.04-1.41,0.06-2.12,0.07h-0.86c-0.36,0-0.54-0.18-0.54-0.54V7.98z M75.56,11.98h-1.3v5.63
		h-1.39V7.31h1.39v3.44h1.3v-3.6h1.39V18h-1.39V11.98z"/>
	<path class="st0" d="M79.26,7.89h5.72v7.04h-5.17c-0.37,0-0.55-0.18-0.55-0.54V7.89z M80.67,13.7h2.89V9.13h-2.89V13.7z M88.8,18
		h-1.43V7.15h1.43V18z"/>
	<path class="st0" d="M93.99,17.8v0.84h6.27v1.21h-7.12c-0.36,0-0.54-0.18-0.54-0.54V16.6h5.94v-0.84H92.6v-1.21h2.98v-0.96h-4.91
		v-1.24h11.28v1.24h-4.94v0.96h2.91v3.25H93.99z M95.58,7.03h1.46v0.4c0,0.37,0.11,0.71,0.32,1.03c0.22,0.32,0.5,0.61,0.86,0.88
		c0.36,0.27,0.77,0.51,1.23,0.72c0.47,0.21,0.95,0.38,1.46,0.53l-0.57,1.12c-0.95-0.29-1.78-0.64-2.49-1.07
		c-0.71-0.42-1.22-0.89-1.55-1.4c-0.32,0.51-0.84,0.98-1.54,1.4c-0.71,0.42-1.54,0.78-2.49,1.07l-0.57-1.12
		c0.5-0.14,0.99-0.32,1.46-0.53c0.47-0.21,0.88-0.44,1.24-0.72c0.36-0.27,0.64-0.56,0.86-0.88c0.22-0.32,0.32-0.66,0.32-1.03V7.03z"
		/>
	<path class="st0" d="M106.61,13.32H107c0.58-0.02,1.15-0.06,1.73-0.12c0.58-0.06,1.14-0.15,1.67-0.29l0.2,1.17
		c-0.3,0.08-0.63,0.15-1.01,0.22c-0.37,0.06-0.77,0.11-1.19,0.15c-0.42,0.04-0.84,0.07-1.27,0.09c-0.43,0.02-0.84,0.03-1.25,0.03
		h-3.14v-1.26h2.43v-2.51h1.43V13.32z M109.63,8.34c0,0.85-0.03,1.6-0.1,2.26c-0.07,0.66-0.16,1.23-0.28,1.72l-1.36-0.13
		c0.1-0.51,0.18-1.03,0.24-1.55c0.06-0.52,0.09-1.05,0.09-1.58h-4.68V7.8h6.08V8.34z M106.12,19.54c-0.36,0-0.54-0.18-0.54-0.54
		v-3.29h1.43v2.58h5.94v1.25H106.12z M114.41,10.74v1.24h-1.82v4.26h-1.43V7.15h1.43v3.59H114.41z"/>
</g>
</svg>
