<svg xmlns="http://www.w3.org/2000/svg" viewBox="0 0 29.09 29.84"><defs><style>.cls-1{fill:#fff;}</style></defs><g id="Layer_2" data-name="Layer 2"><g id="mobile"><g id="header"><g id="logo"><polygon class="cls-1" points="16.8 23.22 23.37 23.22 20.08 14.92 16.8 23.22"/><path class="cls-1" d="M22,11.94H19.9V7.16H16.31V0H11.39L8.57,5.89h0L5.72,0H.79V14.92H3.47A7.86,7.86,0,0,0,12.23,28l-.75,1.86h4.93l.94-2.38h5.46l.94,2.38h5.34Zm3.61,16a.27.27,0,0,1-.13,0,.33.33,0,0,1-.31-.21l-1.52-3.84h-7.1L15,27.73a.33.33,0,0,1-.43.19.33.33,0,0,1-.18-.43l2.41-6.1v-10L12.44,20.6a.34.34,0,0,1-.3.19.32.32,0,0,1-.3-.19L7.47,11.42v4.52h.72a.31.31,0,0,1,.3.35.32.32,0,0,1-.34.31H7.86a2.55,2.55,0,0,0-.39,0v4.1a.34.34,0,0,1-.67,0v-4l-.33.08A4.87,4.87,0,0,0,3,21.45a4.77,4.77,0,0,0,.21,1.38,4.85,4.85,0,0,0,9.31,0,.33.33,0,0,1,.41-.22.34.34,0,0,1,.23.42,5.54,5.54,0,0,1-3.72,3.71A5.79,5.79,0,0,1,7.85,27,5.52,5.52,0,0,1,2.56,23a5.33,5.33,0,0,1-.23-1.57,5.54,5.54,0,0,1,4-5.3L6.8,16V10L3.88,3.91v9.28a.33.33,0,0,1-.33.33.33.33,0,0,1-.33-.33V2.44a.33.33,0,0,1,.63-.14l4.71,9.87,4.7-9.87a.32.32,0,0,1,.37-.18.31.31,0,0,1,.26.32V13.19a.33.33,0,0,1-.66,0V3.91l-4.31,9,3.22,6.75,4.7-9.88a.34.34,0,0,1,.37-.18.32.32,0,0,1,.26.32v9.76l2.3-5.82a.36.36,0,0,1,.31-.21.34.34,0,0,1,.31.21l5.38,13.6A.33.33,0,0,1,25.59,27.92Z"/></g></g></g></g></svg>