<svg id="Layer_3" enable-background="new 0 0 64 64" height="512" viewBox="0 0 64 64" width="512" xmlns="http://www.w3.org/2000/svg"><path d="m37 6c-8.753 0-16.503 4.351-21.217 11h-8.783v-2h-2v2h-2v-16h-2v62h2v-16h2v2h2v-2h8.783c4.714 6.649 12.464 11 21.217 11 14.337 0 26-11.663 26-26s-11.663-26-26-26zm-22.502 13c-.737 1.271-1.374 2.606-1.89 4h-5.608v-4zm-2.533 20h-4.965v-2h-2v2h-2v-14h2v2h2v-2h4.965c-.624 2.229-.965 4.575-.965 7s.341 4.771.965 7zm-6.965-20v4h-2v-4zm-2 26v-4h2v4zm4 0v-4h5.608c.516 1.394 1.153 2.729 1.89 4zm30 11c-13.233 0-24-10.767-24-24s10.767-24 24-24 24 10.767 24 24-10.767 24-24 24z"/><path d="m57 32c0 11.028-8.972 20-20 20v2c12.131 0 22-9.869 22-22z"/><path d="m46.605 40h2.395c.266 0 .54-.126.728-.313 3.4-3.399 5.272-7.92 5.272-12.729v-.958c0-.553-.447-1-1-1h-7v-1c0-.553-.447-1-1-1h-22c-.553 0-1 .447-1 1v13c0 6.617 5.383 12 12 12 5.58 0 10.268-3.833 11.605-9zm6.395-13c-.011 4.123-1.57 8.005-4.421 11h-1.63c.028-.331.051-.662.051-1v-10zm-18 20c-5.514 0-10-4.486-10-10v-12h20v12c0 5.514-4.486 10-10 10z"/><path d="m29 37h-2c0 4.411 3.589 8 8 8h1v-2h-1c-3.309 0-6-2.691-6-6z"/><path d="m27 33h2v2h-2z"/><path d="m32 14c0 .912.355 1.77 1 2.414l.586.586c.267.268.414.622.414 1s-.147.732-.414 1l-1.293 1.293 1.414 1.414 1.293-1.293c.645-.645 1-1.502 1-2.414s-.355-1.77-1-2.414l-.586-.586c-.267-.268-.414-.622-.414-1s.147-.732.414-1l.915-.915c.553-.046 1.107-.085 1.671-.085v-2c-12.131 0-22 9.869-22 22h2c0-9.415 6.547-17.31 15.321-19.425-.204.443-.321.923-.321 1.425z"/><path d="m39.586 17c.267.268.414.622.414 1s-.147.732-.414 1l-1.293 1.293 1.414 1.414 1.293-1.293c.645-.645 1-1.502 1-2.414s-.355-1.77-1-2.414l-.586-.586c-.267-.268-.414-.622-.414-1s.147-.732.414-1l1.293-1.293-1.414-1.414-1.293 1.293c-.645.645-1 1.502-1 2.414s.355 1.77 1 2.414z"/></svg>