<svg id="Layer_3" enable-background="new 0 0 64 64" height="512" viewBox="0 0 64 64" width="512" xmlns="http://www.w3.org/2000/svg"><path d="m32 1c-17.094 0-31 13.907-31 31s13.906 31 31 31 31-13.907 31-31-13.906-31-31-31zm0 60c-15.99 0-29-13.009-29-29s13.01-29 29-29 29 13.009 29 29-13.01 29-29 29z"/><path d="m12.431 15.017c-.2-.2-.476-.305-.761-.292-.284.015-.548.151-.726.372-3.833 4.769-5.944 10.772-5.944 16.903 0 14.888 12.112 27 27 27 6.131 0 12.134-2.111 16.903-5.944.221-.178.356-.441.371-.725.016-.284-.09-.561-.291-.761zm25.155 29.983h-11.172l-3.414-3.414v-10.586c0-.551.448-1 1-1s1 .449 1 1v3h2v-1.586l11.586 11.586zm-5.586 12c-13.785 0-25-11.215-25-25 0-5.385 1.663-10.465 4.822-14.764l11.004 11.004c-1.072.458-1.826 1.522-1.826 2.76v11c0 .265.105.52.293.707l3.707 3.707v3.586h2v-3h10v3h2v-3.586l1-1 6.764 6.764c-4.299 3.159-9.379 4.822-14.764 4.822z"/><path d="m32 5c-6.131 0-12.134 2.111-16.903 5.944-.221.178-.356.441-.371.725-.016.284.09.561.291.761l36.553 36.553c.188.188.442.293.707.293.018 0 .036 0 .054-.001.284-.015.548-.151.726-.372 3.832-4.769 5.943-10.772 5.943-16.903 0-14.888-12.112-27-27-27zm4 12c.552 0 1 .449 1 1v12h2v-8c0-.551.448-1 1-1s1 .449 1 1v13.586l-6-6v-11.586c0-.551.448-1 1-1zm-3 10.586-2-2v-9.586c0-.551.448-1 1-1s1 .449 1 1zm-4-4-2-2v-1.586c0-.551.448-1 1-1s1 .449 1 1zm23.178 23.178-9.178-9.178v-15.586c0-1.654-1.346-3-3-3-.352 0-.686.072-1 .184v-1.184c0-1.654-1.346-3-3-3-.395 0-.77.081-1.116.22-.345-1.275-1.501-2.22-2.884-2.22-1.654 0-3 1.346-3 3v1.184c-.314-.112-.648-.184-1-.184-1.525 0-2.774 1.148-2.962 2.624l-7.802-7.802c4.299-3.159 9.379-4.822 14.764-4.822 13.785 0 25 11.215 25 25 0 5.385-1.663 10.465-4.822 14.764z"/></svg>